<?xml version="1.0" standalone="no"?>
<!DOCTYPE svg PUBLIC "-//W3C//DTD SVG 20010904//EN"
 "http://www.w3.org/TR/2001/REC-SVG-20010904/DTD/svg10.dtd">
<svg version="1.0" xmlns="http://www.w3.org/2000/svg"
 width="591.000000pt" height="426.000000pt" viewBox="0 0 591.000000 426.000000"
 preserveAspectRatio="xMidYMid meet">

<g transform="translate(0.000000,426.000000) scale(0.100000,-0.100000)"
fill="#ffffff" stroke="none">
<path d="M960 3850 l0 -410 -80 0 -80 0 0 -83 c0 -69 4 -92 26 -135 52 -105
153 -133 234 -66 49 42 69 93 77 194 l6 90 -82 0 -81 0 0 410 c0 267 -3 410
-10 410 -7 0 -10 -143 -10 -410z m4 -452 c5 -10 7 -10 12 0 4 7 27 12 65 12
l59 0 0 -67 c0 -91 -52 -201 -62 -132 -2 12 -15 31 -29 42 -39 28 -84 16 -107
-30 l-18 -35 -16 24 c-23 34 -38 95 -38 151 l0 47 64 0 c42 0 66 -4 70 -12z"/>
<path d="M2350 3911 l0 -348 -33 -6 c-99 -16 -209 -103 -259 -205 -30 -60 -33
-75 -33 -157 0 -80 4 -97 32 -157 95 -202 339 -278 528 -167 44 26 41 32 -10
18 -79 -22 -193 18 -255 88 -58 67 -83 140 -78 233 7 115 68 213 162 262 48
24 143 35 185 20 50 -18 36 2 -23 30 -56 28 -169 54 -186 43 -7 -4 -10 118
-10 344 0 227 -4 351 -10 351 -6 0 -10 -123 -10 -349z"/>
<path d="M3760 3850 l0 -410 -50 0 c-50 0 -50 0 -50 -32 1 -122 71 -194 149
-153 41 21 61 63 61 130 l0 55 -45 0 -45 0 0 410 c0 267 -3 410 -10 410 -7 0
-10 -143 -10 -410z m0 -445 c0 -8 5 -15 10 -15 6 0 10 7 10 15 0 10 11 15 35
15 34 0 35 -1 35 -40 0 -39 -17 -90 -30 -90 -4 0 -10 9 -13 20 -7 28 -61 27
-81 -1 -14 -20 -15 -20 -24 -2 -9 15 -16 80 -13 106 1 4 17 7 36 7 24 0 35 -5
35 -15z"/>
<path d="M5160 3546 l0 -714 -51 -12 c-107 -26 -214 -127 -255 -240 -24 -67
-21 -182 6 -253 29 -76 113 -167 188 -204 51 -25 68 -28 157 -28 92 0 105 3
169 33 75 35 83 48 21 31 -55 -16 -127 -5 -186 28 -162 88 -206 316 -91 468
66 87 197 136 283 106 55 -19 44 -4 -22 30 -47 23 -82 33 -131 37 l-68 5 0
713 c0 469 -3 714 -10 714 -7 0 -10 -245 -10 -714z"/>
<path d="M2539 3298 c-22 -45 -26 -48 -71 -54 -26 -4 -48 -10 -48 -13 0 -4 15
-22 34 -40 31 -30 33 -35 25 -74 -4 -23 -8 -46 -9 -50 0 -5 21 3 46 17 l47 26
45 -25 45 -25 -7 52 c-7 49 -6 52 29 88 l36 37 -50 7 c-48 6 -52 9 -75 54
l-24 47 -23 -47z"/>
<path d="M3745 3210 c-9 -10 -61 -48 -114 -84 -53 -35 -108 -77 -123 -92 -34
-37 -58 -93 -58 -139 l0 -35 320 0 320 0 0 33 c0 40 -40 125 -71 153 -13 12
-64 48 -114 81 -49 33 -99 70 -109 82 -23 26 -28 26 -51 1z"/>
<path d="M919 3064 c-24 -25 -107 -88 -184 -139 -155 -104 -212 -156 -248
-230 -21 -41 -47 -141 -47 -177 0 -4 236 -8 525 -8 l525 0 0 28 c0 50 -30 146
-61 194 -39 60 -93 105 -239 200 -63 41 -140 98 -171 126 l-56 51 -44 -45z"/>
<path d="M3447 2814 c-11 -11 33 -64 54 -64 18 0 19 -11 19 -350 0 -334 -1
-350 -18 -350 -23 0 -49 -27 -54 -55 -3 -20 3 -20 320 -23 304 -2 322 -1 322
16 0 27 -29 62 -51 62 -18 0 -19 10 -19 350 0 336 1 350 19 350 18 0 51 38 51
60 0 11 -632 15 -643 4z m192 -91 l-30 -26 -24 23 c-14 13 -25 26 -25 29 0 3
25 4 55 3 l54 -4 -30 -25z m158 0 l-26 -27 -27 25 -26 24 49 5 c26 3 50 4 52
2 3 -1 -7 -15 -22 -29z m183 28 c0 -9 -44 -51 -54 -51 -10 0 -56 40 -56 49 0
3 25 6 55 6 30 0 55 -2 55 -4z m-401 -55 c9 -11 9 -19 -1 -35 -19 -30 -28 -26
-28 14 0 37 10 44 29 21z m91 -23 c0 -36 0 -36 -20 -18 -19 17 -19 19 -4 37
23 24 24 24 24 -19z m64 19 c15 -18 15 -20 -4 -37 -20 -18 -20 -18 -20 18 0
43 1 43 24 19z m96 -19 c0 -35 -1 -36 -19 -19 -16 15 -18 21 -8 37 18 29 27
23 27 -18z m64 15 c7 -12 6 -21 -3 -32 -21 -25 -31 -19 -31 20 0 37 14 42 34
12z m91 -13 c0 -40 -2 -41 -27 -18 -17 15 -17 17 -2 35 24 26 29 23 29 -17z
m-315 -347 l0 -278 -60 0 -60 0 0 272 0 272 32 33 32 33 28 -27 28 -27 0 -278z
m310 0 l0 -278 -60 0 -60 0 0 272 0 272 32 33 32 33 28 -27 28 -27 0 -278z
m-178 295 l28 -27 0 -273 0 -273 -60 0 -60 0 0 272 0 272 27 28 c15 15 29 28
32 28 3 0 18 -12 33 -27z"/>
<path d="M5355 2569 c-20 -43 -46 -59 -96 -59 -16 0 -29 -2 -29 -5 0 -3 16
-20 36 -38 35 -32 36 -33 26 -85 -5 -28 -7 -52 -5 -52 2 0 23 11 46 25 l42 24
44 -25 c24 -13 45 -23 47 -22 1 2 -2 25 -7 52 -9 49 -9 50 26 79 43 35 44 47
6 47 -52 0 -77 16 -95 59 -8 23 -17 41 -19 41 -2 0 -12 -18 -22 -41z"/>
<path d="M447 2433 c-12 -11 -8 -43 6 -43 7 0 18 -13 24 -30 10 -26 16 -30 47
-30 l36 0 0 -570 0 -570 -29 0 c-30 0 -81 -47 -81 -75 0 -7 -3 -20 -6 -29 -6
-14 44 -16 521 -16 l528 0 -7 32 c-9 46 -32 77 -64 84 -15 3 -33 7 -39 10 -10
3 -13 125 -13 568 l0 565 37 3 c30 2 41 9 51 31 7 15 17 27 23 27 5 0 9 11 9
25 l0 25 -518 0 c-285 0 -522 -3 -525 -7z m323 -148 c-24 -25 -49 -45 -55 -45
-6 0 -31 20 -55 45 l-44 45 99 0 99 0 -44 -45z m250 0 c-24 -25 -49 -45 -54
-45 -12 0 -86 71 -86 82 0 4 41 8 92 8 l92 0 -44 -45z m247 -2 l-47 -48 -47
48 -48 47 95 0 95 0 -48 -47z m-587 -78 c0 -6 -13 -24 -30 -40 l-30 -29 0 69
0 69 30 -29 c17 -16 30 -34 30 -40z m130 -2 l0 -68 -31 32 -32 31 29 36 c16
20 30 36 32 36 1 0 2 -30 2 -67z m98 34 l32 -33 -35 -34 -35 -34 0 67 c0 37 1
67 3 67 2 0 17 -15 35 -33z m157 -32 c0 -36 -3 -65 -6 -65 -3 0 -18 13 -34 30
l-28 29 29 35 c16 19 31 35 34 35 3 1 5 -28 5 -64z m93 32 l32 -33 -35 -34
-35 -34 0 67 c0 37 1 67 3 67 2 0 17 -15 35 -33z m162 -34 l0 -67 -35 34 -35
34 32 33 c18 18 33 33 35 33 2 0 3 -30 3 -67z m-552 -76 l42 -43 0 -447 0
-447 -95 0 -95 0 0 442 0 442 47 48 c26 26 50 48 53 48 3 0 25 -19 48 -43z
m250 0 l42 -43 0 -445 0 -444 -95 -3 -95 -3 0 443 0 442 47 48 c26 26 50 48
53 48 3 0 25 -19 48 -43z m255 -5 l47 -48 -2 -439 -3 -440 -95 0 -95 0 -3 440
-2 439 47 48 c26 26 50 48 53 48 3 0 27 -22 53 -48z"/>
<path d="M3450 1931 c0 -53 -11 -51 316 -51 l304 0 10 26 c6 14 10 30 10 35 0
5 -128 9 -320 9 -309 0 -320 -1 -320 -19z"/>
<path d="M3497 1826 c36 -48 144 -96 215 -96 25 0 27 -2 17 -24 -25 -53 41
-92 75 -44 11 15 12 26 6 39 -14 26 -14 26 39 32 68 8 142 42 182 83 l33 34
-293 0 -292 0 18 -24z"/>
<path d="M3755 1570 c-8 -60 3 -192 16 -184 12 7 12 221 0 228 -5 3 -12 -17
-16 -44z"/>
<path d="M450 1013 c0 -10 5 -35 11 -55 l10 -38 495 0 494 0 9 23 c4 12 11 37
14 55 l7 32 -520 0 c-489 0 -520 -1 -520 -17z"/>
<path d="M500 870 c0 -6 18 -30 40 -54 69 -74 185 -124 332 -141 52 -6 56 -8
43 -21 -45 -46 -17 -117 48 -122 64 -6 104 72 61 119 -15 16 -13 18 33 24 85
10 177 35 230 60 52 26 123 87 143 124 l11 21 -471 0 c-313 0 -470 -3 -470
-10z"/>
<path d="M953 464 c-10 -63 -10 -232 0 -309 8 -51 11 -56 20 -40 17 28 16 370
0 386 -9 9 -13 0 -20 -37z"/>
</g>
</svg>
