<?xml version="1.0" standalone="no"?>
<!DOCTYPE svg PUBLIC "-//W3C//DTD SVG 20010904//EN"
 "http://www.w3.org/TR/2001/REC-SVG-20010904/DTD/svg10.dtd">
<svg version="1.0" xmlns="http://www.w3.org/2000/svg"
 width="587.000000pt" height="544.000000pt" viewBox="0 0 587.000000 544.000000"
 preserveAspectRatio="xMidYMid meet">

<g transform="translate(0.000000,544.000000) scale(0.100000,-0.100000)"
fill="#000000" stroke="none">
<path d="M2578 5419 c-21 -12 -24 -49 -6 -67 39 -39 100 17 63 58 -20 22 -32
24 -57 9z"/>
<path d="M2802 5418 c-20 -20 -14 -66 9 -79 33 -17 69 3 69 39 0 33 -16 52
-45 52 -12 0 -26 -5 -33 -12z"/>
<path d="M3035 5410 c-24 -27 -13 -68 22 -76 20 -5 31 -2 45 16 23 28 23 35
-2 60 -25 25 -42 25 -65 0z"/>
<path d="M2341 5401 c-13 -24 8 -55 34 -50 28 6 42 34 26 53 -18 22 -48 20
-60 -3z"/>
<path d="M3260 5399 c-14 -25 11 -69 39 -69 21 0 51 30 51 51 0 41 -71 55 -90
18z"/>
<path d="M3510 5400 c-28 -28 -11 -63 28 -58 21 2 28 9 30 30 5 39 -30 56 -58
28z"/>
<path d="M2114 5399 c-10 -17 23 -46 37 -32 7 7 9 19 6 27 -7 18 -33 21 -43 5z"/>
<path d="M1895 5390 c-3 -5 -1 -10 4 -10 6 0 11 5 11 10 0 6 -2 10 -4 10 -3 0
-8 -4 -11 -10z"/>
<path d="M3744 5386 c-8 -21 13 -46 32 -39 20 8 13 47 -9 51 -9 2 -20 -4 -23
-12z"/>
<path d="M3990 5370 c0 -5 5 -10 10 -10 6 0 10 5 10 10 0 6 -4 10 -10 10 -5 0
-10 -4 -10 -10z"/>
<path d="M2113 5197 c-28 -12 -38 -40 -24 -66 14 -25 45 -35 69 -22 26 14 33
36 22 65 -10 28 -37 37 -67 23z"/>
<path d="M2330 5190 c-11 -11 -20 -28 -20 -38 0 -41 69 -69 98 -40 17 17 15
64 -4 82 -21 22 -50 20 -74 -4z"/>
<path d="M2560 5190 c-11 -11 -20 -29 -20 -40 0 -25 34 -60 58 -60 31 0 62 29
62 59 0 55 -61 80 -100 41z"/>
<path d="M2790 5190 c-24 -24 -25 -48 -4 -78 19 -28 67 -29 94 -2 23 23 24 33
9 63 -23 43 -66 50 -99 17z"/>
<path d="M3026 5195 c-36 -37 -23 -95 25 -110 29 -9 73 24 77 58 6 51 -66 88
-102 52z"/>
<path d="M3262 5194 c-46 -32 -17 -114 40 -114 26 0 58 36 58 65 0 29 -32 65
-58 65 -10 0 -28 -7 -40 -16z"/>
<path d="M1872 5188 c-27 -27 -7 -78 29 -78 21 0 49 26 49 45 0 35 -53 58 -78
33z"/>
<path d="M3486 5178 c-9 -12 -16 -30 -16 -40 0 -22 38 -58 62 -58 25 0 58 36
58 63 0 53 -75 77 -104 35z"/>
<path d="M3732 5184 c-41 -28 -22 -94 28 -94 55 0 78 52 40 90 -24 24 -38 25
-68 4z"/>
<path d="M1650 5175 c-18 -21 -5 -47 22 -43 26 3 37 36 16 49 -18 12 -24 11
-38 -6z"/>
<path d="M3968 5179 c-21 -12 -24 -59 -6 -77 18 -18 53 -15 71 6 22 24 21 45
-1 65 -21 19 -39 21 -64 6z"/>
<path d="M4205 5164 c-19 -20 -16 -43 8 -58 20 -13 50 2 55 26 3 16 -23 48
-38 48 -5 0 -16 -7 -25 -16z"/>
<path d="M4450 5141 c0 -6 5 -13 10 -16 6 -3 10 1 10 9 0 9 -4 16 -10 16 -5 0
-10 -4 -10 -9z"/>
<path d="M2803 4989 c-34 -12 -56 -53 -48 -89 14 -62 96 -82 134 -34 27 35 27
75 -1 101 -28 25 -57 33 -85 22z"/>
<path d="M2105 4978 c-27 -15 -35 -28 -35 -59 0 -55 83 -82 114 -37 23 33 19
64 -10 87 -30 24 -41 25 -69 9z"/>
<path d="M2319 4972 c-48 -40 -17 -122 47 -122 35 0 74 37 74 70 0 10 -9 29
-21 44 -25 31 -66 35 -100 8z"/>
<path d="M2541 4964 c-25 -32 -26 -46 -6 -84 19 -36 66 -48 100 -26 48 31 54
76 17 119 -24 28 -86 23 -111 -9z"/>
<path d="M3010 4970 c-26 -26 -27 -91 -2 -112 66 -59 161 8 127 89 -20 47 -88
60 -125 23z"/>
<path d="M3245 4965 c-43 -42 -29 -105 26 -124 24 -8 38 -8 58 2 37 18 54 57
40 96 -19 55 -82 69 -124 26z"/>
<path d="M3503 4980 c-78 -32 -57 -140 28 -140 29 0 42 6 58 26 28 36 26 60
-8 95 -31 31 -42 33 -78 19z"/>
<path d="M1642 4964 c-24 -17 -29 -53 -10 -72 19 -19 66 -15 78 7 14 28 13 38
-10 61 -24 24 -29 24 -58 4z"/>
<path d="M1856 4958 c-22 -31 -20 -45 8 -73 22 -22 29 -23 53 -14 32 12 43 26
43 55 0 50 -76 73 -104 32z"/>
<path d="M3715 4955 c-28 -27 -31 -45 -14 -78 15 -29 28 -37 59 -37 42 0 70
26 70 65 0 67 -69 97 -115 50z"/>
<path d="M1410 4956 c-19 -23 -8 -61 18 -64 44 -7 67 32 36 62 -19 20 -38 20
-54 2z"/>
<path d="M3946 4948 c-23 -33 -19 -64 10 -87 34 -27 55 -26 82 2 42 44 16 107
-43 107 -24 0 -39 -7 -49 -22z"/>
<path d="M4187 4942 c-35 -38 -8 -92 45 -92 31 0 51 21 51 55 0 14 -6 32 -13
40 -17 21 -63 19 -83 -3z"/>
<path d="M1185 4940 c-4 -7 -3 -16 3 -22 14 -14 45 -2 40 15 -6 16 -34 21 -43
7z"/>
<path d="M4420 4930 c-25 -47 22 -94 66 -65 26 17 30 35 14 66 -15 26 -66 26
-80 -1z"/>
<path d="M4664 4915 c-4 -9 0 -23 9 -32 21 -21 49 -9 45 19 -4 28 -45 38 -54
13z"/>
<path d="M2541 4754 c-60 -50 -34 -145 44 -159 44 -8 92 25 100 69 9 47 -1 74
-38 97 -43 26 -70 24 -106 -7z"/>
<path d="M2771 4754 c-25 -20 -31 -34 -31 -64 0 -52 8 -68 41 -85 62 -32 121
-10 138 51 12 44 2 74 -35 103 -36 28 -76 27 -113 -5z"/>
<path d="M3018 4764 c-54 -29 -66 -102 -23 -148 32 -35 101 -37 133 -3 45 48
36 124 -19 152 -35 19 -56 18 -91 -1z"/>
<path d="M3278 4772 c-35 -4 -78 -55 -78 -93 0 -45 48 -93 95 -93 68 0 115 78
83 137 -21 40 -51 55 -100 49z"/>
<path d="M2089 4757 c-43 -33 -50 -87 -14 -122 51 -52 135 -17 135 57 0 58
-76 99 -121 65z"/>
<path d="M2305 4745 c-53 -52 -14 -145 62 -145 72 0 109 85 62 144 -28 36 -89
37 -124 1z"/>
<path d="M3471 4744 c-64 -54 -27 -154 56 -154 86 1 124 91 64 151 -37 37 -79
38 -120 3z"/>
<path d="M1643 4750 c-28 -11 -46 -45 -38 -70 16 -51 69 -66 105 -30 28 28 25
64 -6 89 -30 23 -30 23 -61 11z"/>
<path d="M1852 4744 c-50 -34 -15 -124 48 -124 17 0 39 9 50 20 11 11 20 33
20 50 0 59 -67 90 -118 54z"/>
<path d="M3704 4736 c-39 -33 -39 -89 0 -122 82 -71 191 42 116 121 -31 33
-79 33 -116 1z"/>
<path d="M1400 4730 c-11 -11 -20 -28 -20 -38 0 -23 30 -52 53 -52 21 0 57 35
57 55 0 8 -9 24 -20 35 -11 11 -27 20 -35 20 -8 0 -24 -9 -35 -20z"/>
<path d="M3939 4731 c-45 -37 -23 -120 37 -135 28 -7 79 16 88 39 12 32 6 75
-14 95 -25 25 -80 26 -111 1z"/>
<path d="M1170 4725 c-15 -18 -6 -61 16 -69 24 -9 54 12 54 37 0 43 -44 63
-70 32z"/>
<path d="M4178 4723 c-8 -10 -18 -23 -22 -30 -11 -19 20 -80 44 -88 74 -24
129 64 74 119 -21 21 -77 20 -96 -1z"/>
<path d="M4417 4712 c-22 -24 -21 -65 1 -85 40 -36 102 -9 102 45 0 51 -69 78
-103 40z"/>
<path d="M944 4709 c-8 -14 21 -43 35 -35 6 4 11 16 11 27 0 21 -34 27 -46 8z"/>
<path d="M4656 4704 c-32 -31 -11 -84 32 -84 35 0 52 16 52 50 0 14 -5 31 -12
38 -17 17 -54 15 -72 -4z"/>
<path d="M4907 4699 c-24 -14 -22 -56 3 -64 25 -8 50 10 50 36 0 24 -30 40
-53 28z"/>
<path d="M2554 4550 c-32 -13 -64 -59 -64 -92 0 -42 25 -84 60 -99 l30 -14
-33 -15 c-17 -8 -41 -29 -52 -46 l-20 -30 -20 30 c-27 41 -86 61 -131 46 -48
-16 -74 -54 -74 -107 0 -37 5 -50 33 -77 l32 -32 -39 -37 -39 -36 -18 23 c-10
13 -32 29 -49 36 l-30 12 32 17 c19 9 41 32 50 51 49 101 -75 197 -161 124
-58 -48 -50 -126 17 -171 l34 -22 -36 -15 c-22 -9 -42 -28 -54 -51 l-19 -37
-13 31 c-15 38 -55 61 -105 61 -108 0 -133 -162 -32 -205 l31 -13 -36 -15
c-49 -20 -68 -52 -68 -111 0 -43 4 -53 35 -82 33 -30 34 -33 15 -39 -17 -5
-31 -21 -56 -63 -1 -1 -17 13 -37 33 -76 76 -187 28 -187 -81 0 -44 22 -78 61
-95 l31 -12 -30 -12 c-41 -18 -72 -61 -72 -102 0 -44 24 -89 56 -106 l25 -13
-25 -14 c-14 -7 -34 -30 -43 -51 -19 -40 -33 -50 -33 -23 0 8 -13 29 -29 45
-23 23 -38 29 -71 29 -121 0 -139 -179 -20 -205 42 -9 99 18 113 55 12 32 27
40 27 14 0 -9 16 -32 36 -52 24 -24 32 -38 23 -41 -22 -7 -59 -53 -59 -72 0
-29 -14 -23 -27 11 -16 41 -71 67 -119 54 -103 -26 -103 -172 0 -198 49 -13
102 12 121 56 l13 32 15 -36 c8 -20 27 -44 42 -54 l27 -17 -31 -24 c-43 -34
-58 -88 -38 -136 9 -20 30 -45 47 -56 l32 -19 -23 -12 c-41 -21 -59 -52 -59
-103 0 -40 5 -53 29 -78 25 -24 38 -29 79 -29 44 0 55 5 83 32 24 24 34 29 37
19 3 -8 18 -27 35 -42 29 -27 29 -27 8 -38 -11 -7 -28 -26 -37 -42 l-16 -31
-18 30 c-24 39 -49 52 -97 52 -60 -1 -103 -46 -103 -110 0 -45 56 -100 102
-100 44 0 96 33 104 66 l7 27 16 -34 c9 -18 31 -43 49 -56 l33 -22 -23 -12
c-90 -46 -71 -186 29 -205 44 -8 99 16 115 51 12 26 28 34 28 13 0 -16 51 -68
67 -68 20 0 15 -18 -7 -25 -33 -10 -60 -54 -60 -97 0 -57 51 -108 108 -108 43
0 87 27 97 60 9 27 18 25 32 -8 24 -52 103 -78 156 -51 12 6 31 23 43 37 l21
26 12 -23 c7 -12 26 -30 42 -40 l30 -18 -26 -17 c-98 -64 -46 -216 70 -202 55
7 95 51 95 107 0 34 -6 47 -36 77 -25 25 -32 38 -23 41 8 2 26 16 41 31 l27
27 19 -22 c11 -13 28 -28 38 -33 17 -10 17 -12 -7 -31 -87 -68 -44 -201 65
-201 49 0 83 21 101 63 l12 30 14 -29 c16 -32 73 -74 101 -74 35 0 89 32 104
63 l16 29 19 -31 c27 -45 82 -66 130 -52 52 16 79 53 79 109 0 38 -5 49 -35
78 l-35 33 22 12 c13 6 30 21 39 32 17 21 17 21 49 -11 17 -18 36 -32 42 -32
6 0 -6 -15 -27 -33 -34 -30 -38 -38 -38 -80 0 -53 19 -82 71 -104 65 -27 142
23 142 94 0 46 -22 86 -57 102 l-28 13 36 18 c19 10 41 31 48 47 l13 28 14
-27 c18 -35 62 -58 110 -58 46 0 104 53 105 97 l1 28 7 -26 c15 -48 33 -71 64
-84 66 -27 140 12 153 80 8 42 -12 83 -52 110 l-32 21 29 11 c16 6 38 28 50
48 l22 36 19 -31 c57 -94 198 -57 198 52 0 52 -13 74 -58 97 l-37 19 28 7 c35
9 77 59 77 91 0 14 4 22 10 19 6 -3 10 -15 10 -26 0 -11 13 -34 29 -50 64 -63
171 -19 171 70 0 75 -53 120 -124 107 -35 -7 -76 -46 -76 -72 0 -23 -17 -16
-24 10 -3 14 -19 35 -34 48 l-28 23 31 30 c18 16 35 37 38 45 6 13 8 13 13 1
17 -37 57 -61 103 -61 69 1 111 43 111 112 0 41 -21 73 -62 94 l-32 16 30 13
c86 37 97 150 19 201 l-24 16 39 37 c33 32 40 44 40 77 0 45 -29 99 -59 109
-19 6 -17 9 19 44 35 33 40 43 40 84 0 34 -6 53 -26 76 -14 17 -32 31 -40 31
-21 0 -17 18 6 25 60 19 81 119 35 173 -14 16 -37 33 -52 37 l-28 8 31 13 c42
17 74 59 74 96 0 62 -53 118 -112 118 -30 0 -84 -33 -98 -61 -12 -21 -12 -21
-28 10 -8 18 -24 37 -36 43 -12 6 -22 12 -24 13 -1 1 13 18 33 38 30 30 35 42
35 80 0 54 -26 91 -75 107 -47 16 -89 5 -119 -30 l-24 -29 -39 38 -38 38 33
30 c28 26 32 37 32 79 0 60 -21 90 -75 109 -39 13 -39 13 -14 20 15 4 39 20
54 35 78 82 -18 213 -120 165 -44 -21 -60 -55 -56 -121 1 -27 48 -74 72 -74
11 0 19 -4 19 -10 0 -5 -10 -10 -21 -10 -12 0 -36 -15 -54 -34 l-32 -34 -17
29 c-9 16 -20 29 -24 29 -4 0 -13 4 -20 9 -10 6 -4 17 22 43 29 29 36 43 36
76 0 49 -35 95 -84 112 -44 14 -100 -7 -123 -48 l-17 -29 -21 31 c-11 17 -36
39 -54 48 l-34 17 25 10 c35 13 68 58 68 93 0 64 -45 108 -111 108 -45 0 -99
-56 -99 -103 0 -40 31 -84 69 -99 l26 -10 -31 -13 c-17 -7 -41 -26 -54 -41
-17 -21 -24 -25 -28 -15 -7 21 -53 61 -69 61 -8 0 4 17 27 38 34 33 40 45 40
79 0 77 -74 129 -142 100 -49 -21 -69 -49 -70 -96 0 -46 21 -86 52 -96 20 -6
28 -25 10 -25 -5 0 -25 -14 -43 -30 l-35 -30 -16 25 c-9 13 -27 27 -41 31 -24
6 -23 6 17 45 38 36 40 41 35 84 -9 80 -77 124 -148 94 -36 -14 -69 -62 -69
-99 0 -33 35 -89 61 -99 20 -7 19 -9 -15 -29 -20 -12 -39 -29 -42 -37 -5 -12
-14 -8 -45 20 -22 19 -45 35 -52 35 -6 1 3 7 21 15 72 31 78 144 9 185 -50 31
-93 26 -133 -14 -54 -54 -46 -127 19 -166 l31 -19 -26 -10 c-14 -5 -35 -22
-47 -37 l-21 -27 -20 25 c-10 14 -33 31 -50 38 l-32 13 31 13 c35 15 61 60 61
105 0 22 -10 41 -34 65 -35 35 -68 42 -112 24z m-31 -427 c11 -6 7 -14 -18
-39 l-31 -31 -38 33 c-34 30 -36 33 -17 39 11 3 28 19 38 35 l17 29 17 -29
c10 -15 24 -32 32 -37z m1166 -1 c24 -21 25 -23 8 -33 -9 -6 -25 -19 -35 -29
-16 -18 -18 -18 -50 11 l-33 29 33 40 c28 33 34 36 42 22 4 -9 20 -27 35 -40z
m-951 18 l22 -29 -26 -26 -26 -26 -27 23 c-14 13 -27 23 -29 24 -4 2 52 63 58
63 3 0 15 -13 28 -29z m230 -57 l-25 -25 -27 25 -26 25 26 30 27 30 25 -30 25
-30 -25 -25z m234 1 l-27 -22 -26 22 -26 21 26 31 26 31 27 -31 26 -31 -26
-21z m223 66 c3 -11 16 -25 27 -31 19 -10 19 -12 -12 -38 l-32 -27 -28 26 -28
25 27 32 c31 38 38 39 46 13z m-1373 -246 l24 -19 -37 -37 -37 -36 -24 25
c-12 14 -34 29 -47 34 l-24 10 34 17 c19 9 41 31 49 48 l15 31 11 -27 c7 -15
22 -35 36 -46z m217 5 l23 -30 -26 -24 -27 -25 -29 22 c-17 12 -30 23 -30 26
0 5 54 61 60 61 3 0 16 -14 29 -30z m222 -52 l-21 -21 -22 22 -22 22 23 24 24
25 20 -25 20 -26 -22 -21z m1415 -19 l-31 -27 -28 28 -28 27 28 31 28 31 31
-32 31 -31 -31 -27z m-1181 22 l-19 -21 -20 20 c-19 20 -19 21 -1 41 l19 21
20 -20 c19 -20 19 -21 1 -41z m944 -11 c-30 -23 -32 -23 -54 1 -18 20 -18 21
4 44 l22 24 26 -26 25 -25 -23 -18z m-709 46 c10 -12 10 -18 0 -30 -16 -19
-39 -19 -46 0 -6 15 11 45 26 45 4 0 13 -7 20 -15z m234 -3 c15 -18 15 -20 -1
-35 -15 -13 -21 -13 -36 -2 -16 11 -16 16 -5 34 16 26 20 26 42 3z m235 -1
c19 -19 19 -20 0 -37 -16 -14 -21 -15 -36 -3 -10 7 -20 15 -22 16 -4 3 29 43
36 43 1 0 12 -9 22 -19z m-1399 -214 l25 -32 -26 -26 -26 -25 -31 28 -31 27
27 29 c15 16 29 30 32 30 3 0 16 -14 30 -31z m2132 -58 c-10 -4 -25 -16 -35
-27 -18 -19 -18 -19 -48 10 l-29 30 27 31 28 32 36 -35 c31 -29 34 -36 21 -41z
m-1892 29 c0 -11 -26 -38 -36 -38 -4 0 -16 8 -26 17 -18 16 -18 17 4 40 20 21
23 22 40 6 10 -9 18 -20 18 -25z m215 -17 c-13 -14 -17 -14 -32 1 -14 14 -14
20 -3 33 12 14 15 14 32 -2 17 -15 17 -18 3 -32z m1413 -18 l-22 -23 -23 22
-23 22 22 23 22 23 23 -22 23 -22 -22 -23z m-1182 22 c-5 -14 -9 -15 -21 -5
-12 10 -13 16 -4 27 15 18 34 1 25 -22z m942 23 c7 -7 12 -17 12 -24 0 -19
-32 -26 -48 -10 -13 12 -13 18 -2 30 15 19 22 20 38 4z m-708 -13 c0 -8 -7
-15 -15 -15 -16 0 -20 12 -8 23 11 12 23 8 23 -8z m235 5 c11 -17 -5 -32 -21
-19 -7 6 -11 15 -8 20 7 12 21 11 29 -1z m240 -10 c0 -22 -29 -18 -33 3 -3 14
1 18 15 15 10 -2 18 -10 18 -18z m-1628 -257 l-31 -31 -33 29 c-19 16 -39 29
-46 29 -7 0 2 9 20 20 18 11 38 28 45 39 11 19 13 18 44 -17 l32 -37 -31 -32z
m2614 22 c20 -7 19 -8 -12 -27 -17 -11 -40 -29 -49 -41 l-17 -21 -7 22 c-4 13
-19 30 -32 39 l-25 16 31 30 c16 16 30 37 30 45 0 11 11 3 30 -20 17 -20 40
-40 51 -43z m-2389 38 c23 -21 23 -36 -2 -58 -20 -18 -21 -18 -45 5 l-25 24
22 23 c26 27 26 28 50 6z m2111 -69 l-28 -23 -24 24 -25 24 24 26 24 25 28
-27 28 -27 -27 -22z m-1879 49 c4 -9 1 -22 -6 -29 -10 -10 -17 -10 -32 1 -16
12 -17 17 -6 30 16 20 36 19 44 -2z m226 -7 c0 -8 -4 -17 -9 -21 -12 -7 -24
12 -16 25 9 15 25 12 25 -4z m1414 -1 c20 -15 20 -15 0 -30 -24 -18 -29 -18
-44 0 -10 12 -10 18 0 30 15 18 20 18 44 0z m-1184 -5 c0 -5 -4 -10 -10 -10
-5 0 -10 5 -10 10 0 6 5 10 10 10 6 0 10 -4 10 -10z m704 -11 c-3 -5 -10 -7
-15 -3 -5 3 -7 10 -3 15 3 5 10 7 15 3 5 -3 7 -10 3 -15z m242 10 c10 -17 -13
-36 -27 -22 -12 12 -4 33 11 33 5 0 12 -5 16 -11z m-1858 -200 l23 -26 -28
-30 -28 -30 -38 32 c-36 31 -37 34 -17 40 11 4 28 18 37 31 9 14 19 21 22 17
4 -4 17 -20 29 -34z m2564 -5 c12 -14 30 -29 42 -33 19 -8 19 -9 -11 -25 -18
-9 -36 -24 -42 -33 -8 -15 -13 -13 -40 16 l-31 33 27 33 c16 19 30 34 32 34 2
1 12 -11 23 -25z m-2344 -4 c10 -16 10 -24 0 -40 -7 -11 -16 -20 -19 -20 -3 0
-14 9 -24 20 -17 19 -17 21 0 40 10 11 21 20 24 20 3 0 12 -9 19 -20z m2110
-57 l-22 -23 -23 22 -23 22 22 23 22 23 23 -22 23 -22 -22 -23z m-1882 46 c10
-17 -13 -36 -27 -22 -12 12 -4 33 11 33 5 0 12 -5 16 -11z m224 -9 c0 -5 -4
-10 -10 -10 -5 0 -10 5 -10 10 0 6 5 10 10 10 6 0 10 -4 10 -10z m1419 -4 c9
-10 8 -16 -4 -26 -19 -16 -41 1 -32 24 8 20 21 20 36 2z m-239 -6 c0 -5 -4
-10 -10 -10 -5 0 -10 5 -10 10 0 6 5 10 10 10 6 0 10 -4 10 -10z m-1861 -250
c-13 -16 -24 -30 -25 -30 -1 0 -16 13 -34 30 l-31 29 32 29 33 29 23 -28 24
-28 -22 -31z m227 11 c-17 -19 -19 -19 -41 -3 l-23 17 21 23 c21 22 21 22 41
3 19 -20 19 -21 2 -40z m2358 25 c33 -32 34 -35 16 -41 -11 -4 -28 -17 -36
-30 l-16 -24 -30 34 -30 35 29 30 c15 16 28 30 29 30 1 0 18 -15 38 -34z
m-2135 -23 c-15 -18 -34 -1 -25 22 5 14 9 15 21 5 12 -10 13 -16 4 -27z m1887
18 l23 -18 -24 -23 c-14 -13 -26 -22 -28 -19 -1 2 -8 12 -15 21 -11 13 -11 20
0 37 16 25 14 25 44 2z m-236 -16 c0 -19 -20 -29 -32 -17 -8 8 -7 16 2 26 14
17 30 12 30 -9z m-245 6 c3 -5 1 -12 -5 -16 -5 -3 -10 1 -10 9 0 18 6 21 15 7z
m-1853 -200 l27 -28 -29 -28 -28 -27 -36 28 -35 28 32 28 c18 15 34 27 37 28
3 0 17 -13 32 -29z m2603 -37 c19 -10 18 -11 -5 -24 -14 -7 -31 -22 -39 -32
-13 -19 -14 -19 -42 12 -16 17 -29 33 -29 34 0 2 12 17 28 34 l27 30 21 -22
c11 -11 29 -26 39 -32z m-2380 26 c17 -19 17 -21 0 -40 l-18 -20 -24 22 c-21
20 -22 23 -6 40 20 23 26 23 48 -2z m2113 -13 l21 -22 -24 -21 -23 -21 -21 20
c-19 19 -19 21 -3 43 21 29 24 29 50 1z m-1883 -6 c0 -8 -4 -16 -10 -18 -16
-5 -38 14 -30 26 9 16 40 9 40 -8z m225 -1 c0 -5 -4 -10 -10 -10 -5 0 -10 5
-10 10 0 6 5 10 10 10 6 0 10 -4 10 -10z m1415 0 c4 -6 1 -17 -5 -26 -10 -11
-16 -12 -26 -3 -11 9 -11 15 -3 25 14 17 25 18 34 4z m-235 -10 c0 -5 -7 -10
-15 -10 -8 0 -15 5 -15 10 0 6 7 10 15 10 8 0 15 -4 15 -10z m-1861 -252 l-30
-34 -38 36 -37 35 28 18 c16 9 31 24 35 32 4 12 13 8 39 -19 l33 -34 -30 -34z
m2565 57 c9 -14 27 -27 41 -31 28 -7 34 -24 9 -24 -9 0 -30 -15 -47 -32 -22
-25 -31 -29 -35 -19 -3 8 -16 26 -29 39 l-25 25 26 24 c14 13 26 28 26 33 0
18 18 10 34 -15z m-2340 -4 c17 -18 17 -21 0 -46 l-17 -26 -25 25 c-25 25 -25
26 -7 46 22 25 27 25 49 1z m236 -28 c0 -20 -26 -27 -44 -11 -12 11 -12 15 1
30 12 14 19 15 30 7 7 -6 13 -18 13 -26z m1876 12 l26 -24 -28 -24 -28 -24
-22 26 -22 25 22 23 c11 12 22 23 23 23 1 0 14 -11 29 -25z m-1651 -4 c7 -12
-12 -24 -25 -16 -11 7 -4 25 10 25 5 0 11 -4 15 -9z m1414 -4 c8 -11 6 -18 -8
-31 -16 -15 -20 -15 -31 -1 -15 18 -7 45 13 45 8 0 20 -6 26 -13z m-1189 -7
c0 -5 -2 -10 -4 -10 -3 0 -8 5 -11 10 -3 6 -1 10 4 10 6 0 11 -4 11 -10z m950
1 c0 -14 -18 -23 -30 -16 -6 4 -8 11 -5 16 8 12 35 12 35 0z m-1634 -199 l22
-27 -22 -28 -22 -28 -31 28 -30 28 26 26 c14 15 28 27 31 27 3 1 15 -11 26
-26z m229 -12 c17 -19 17 -21 0 -40 l-18 -20 -24 22 c-22 20 -22 22 -5 39 22
23 25 23 47 -1z m1888 -5 l28 -25 -33 -29 -32 -29 -26 27 -26 26 25 28 c14 15
27 27 30 27 3 0 19 -12 34 -25z m-1664 -31 c-14 -14 -17 -14 -29 0 -10 13 -10
19 0 32 12 14 15 14 29 0 14 -15 14 -17 0 -32z m1417 27 l23 -18 -24 -23 -24
-23 -19 23 c-17 21 -17 25 -3 41 20 22 19 22 47 0z m-1183 -22 c-17 -17 -37
-1 -22 17 8 10 15 12 23 4 7 -7 7 -13 -1 -21z m947 16 c10 -12 9 -18 -5 -32
-17 -16 -18 -16 -31 2 -10 14 -11 22 -3 32 15 17 24 16 39 -2z m-710 -3 c0
-13 -12 -22 -22 -16 -10 6 -1 24 13 24 5 0 9 -4 9 -8z m232 -7 c0 -5 -5 -11
-11 -13 -6 -2 -11 4 -11 13 0 9 5 15 11 13 6 -2 11 -8 11 -13z m236 -2 c-4
-22 -22 -20 -26 1 -2 10 3 16 13 16 10 0 15 -7 13 -17z m-1385 -188 c32 -32
34 -36 18 -48 -10 -6 -26 -25 -36 -40 l-18 -28 -11 23 c-6 12 -26 32 -44 44
l-32 22 25 6 c13 3 32 17 42 31 10 13 19 25 20 25 0 0 17 -16 36 -35z m2145
-40 c23 -7 22 -7 -10 -23 -18 -10 -40 -32 -49 -50 l-17 -33 -10 29 c-6 17 -21
38 -34 48 l-24 18 35 36 36 36 25 -27 c14 -14 36 -29 48 -34z m-1918 30 l23
-24 -25 -30 -25 -29 -27 30 -26 31 22 22 c30 29 30 29 58 0z m240 -27 c0 -12
-26 -38 -37 -38 -4 0 -14 9 -21 21 -11 18 -11 24 4 40 16 18 18 18 36 3 10
-10 18 -21 18 -26z m1401 16 l28 -27 -31 -29 c-17 -16 -31 -27 -32 -26 0 2
-11 15 -24 29 l-23 27 23 25 c13 14 25 25 27 26 3 1 17 -11 32 -25z m-240 -5
l21 -21 -22 -24 -23 -23 -19 25 c-19 24 -19 26 -3 44 22 24 20 25 46 -1z
m-947 5 c20 -8 20 -21 1 -41 -12 -12 -19 -13 -30 -3 -18 15 -19 37 -2 43 6 3
13 6 14 6 1 1 8 -2 17 -5z m236 -9 c10 -12 10 -18 0 -31 -12 -13 -15 -13 -28
0 -15 15 -10 46 6 46 5 0 15 -7 22 -15z m240 0 c10 -12 9 -18 -5 -31 -15 -15
-18 -15 -32 -1 -13 13 -14 19 -3 31 16 20 24 20 40 1z m239 1 c10 -12 8 -19
-8 -35 -19 -19 -20 -19 -37 0 -14 15 -14 21 -4 34 16 19 34 19 49 1z m-1146
-225 c19 -14 19 -14 -1 -30 -12 -9 -28 -29 -36 -45 l-14 -28 -15 29 c-9 16
-27 35 -41 43 -28 15 -34 30 -12 30 8 0 27 13 42 29 l28 30 15 -22 c8 -12 24
-28 34 -36z m210 -46 l-26 -33 -32 32 -32 31 31 27 31 26 27 -25 27 -26 -26
-32z m1391 70 c3 -8 21 -22 40 -32 l35 -16 -32 -21 c-18 -12 -38 -35 -46 -50
l-14 -29 -12 30 c-7 16 -24 39 -38 50 l-26 20 25 14 c14 7 30 21 35 31 12 22
25 23 33 3z m-1161 -18 l25 -22 -24 -29 -25 -28 -25 27 -25 27 22 24 c12 13
24 24 25 24 2 0 14 -10 27 -23z m967 -31 c-1 -3 -14 -18 -29 -35 l-27 -29 -28
34 -27 34 28 24 28 24 28 -24 c15 -13 27 -25 27 -28z m-732 24 l23 -19 -25
-28 c-14 -15 -27 -25 -28 -23 -2 3 -12 15 -22 28 -18 21 -18 23 -1 42 22 24
24 24 53 0z m236 1 c17 -19 17 -21 -1 -45 -22 -32 -24 -32 -53 -1 l-23 24 24
20 c30 25 32 25 53 2z m234 -1 l24 -20 -24 -29 c-12 -17 -25 -30 -28 -30 -3 0
-16 13 -28 30 l-24 29 24 20 c12 11 25 19 28 19 3 0 16 -8 28 -19z m-473 -214
c12 -13 28 -25 36 -28 10 -4 5 -13 -18 -35 -18 -17 -33 -38 -33 -47 0 -9 -4
-16 -10 -16 -5 0 -10 7 -10 16 0 8 -14 30 -31 47 -21 21 -27 33 -18 36 7 2 22
14 33 26 27 29 25 29 51 1z m263 -54 c-11 -8 -28 -28 -38 -45 l-19 -31 -10 26
c-5 14 -21 34 -34 45 l-25 18 36 31 37 31 36 -31 c36 -29 36 -31 17 -44z"/>
<path d="M2071 4524 c-25 -21 -31 -34 -31 -64 0 -58 35 -95 90 -95 55 0 90 37
90 95 0 30 -6 43 -31 64 -17 15 -43 26 -59 26 -16 0 -42 -11 -59 -26z"/>
<path d="M2297 4530 c-82 -65 -2 -203 98 -170 67 22 89 113 39 164 -34 33 -98
36 -137 6z"/>
<path d="M1632 4525 c-56 -24 -56 -106 0 -129 56 -24 108 9 108 66 -1 52 -56
84 -108 63z"/>
<path d="M1841 4523 c-12 -10 -24 -35 -28 -55 -5 -32 -1 -41 25 -68 32 -32 60
-37 95 -18 33 17 46 39 47 79 0 68 -85 106 -139 62z"/>
<path d="M3689 4511 c-39 -40 -40 -89 -1 -132 65 -73 192 -9 168 85 -19 77
-111 103 -167 47z"/>
<path d="M3953 4525 c-61 -26 -72 -97 -24 -146 69 -69 174 -6 149 88 -14 54
-73 81 -125 58z"/>
<path d="M1397 4509 c-49 -38 -26 -109 36 -109 33 0 70 45 61 74 -15 49 -59
65 -97 35z"/>
<path d="M1172 4504 c-39 -27 -19 -94 27 -94 24 0 51 31 51 58 0 18 -33 52
-50 52 -3 0 -16 -7 -28 -16z"/>
<path d="M4165 4495 c-52 -51 -15 -135 58 -135 46 0 76 26 83 72 5 30 2 41
-19 62 -35 35 -89 35 -122 1z"/>
<path d="M4405 4485 c-30 -30 -31 -54 -4 -89 15 -19 30 -26 55 -26 67 0 99 73
51 118 -31 29 -72 28 -102 -3z"/>
<path d="M937 4493 c-25 -24 8 -77 41 -66 22 8 35 43 21 59 -12 14 -51 19 -62
7z"/>
<path d="M4652 4484 c-22 -15 -30 -57 -14 -80 22 -33 83 -34 104 -1 14 22 8
57 -12 77 -24 24 -48 25 -78 4z"/>
<path d="M714 4475 c-4 -9 -2 -21 3 -26 14 -14 45 1 41 20 -4 22 -37 26 -44 6z"/>
<path d="M4903 4480 c-39 -16 -40 -70 -1 -91 29 -16 70 14 66 48 -4 33 -36 54
-65 43z"/>
<path d="M5129 4454 c-16 -20 -1 -48 29 -52 25 -4 39 32 22 53 -16 19 -34 19
-51 -1z"/>
<path d="M1829 4291 c-21 -22 -29 -39 -29 -66 0 -27 8 -44 29 -66 39 -38 87
-39 130 -3 26 21 31 33 31 69 0 89 -97 129 -161 66z"/>
<path d="M1602 4287 c-22 -23 -29 -68 -16 -102 8 -19 55 -45 84 -45 33 0 80
53 80 90 0 71 -99 109 -148 57z"/>
<path d="M1376 4278 c-22 -30 -20 -81 2 -101 25 -23 85 -22 105 1 23 25 22 85
-1 105 -28 25 -87 22 -106 -5z"/>
<path d="M4155 4275 c-50 -49 -22 -145 46 -160 93 -21 156 89 90 156 -39 39
-100 41 -136 4z"/>
<path d="M1164 4282 c-51 -34 -28 -111 34 -112 29 0 62 34 62 63 0 43 -60 73
-96 49z"/>
<path d="M4412 4283 c-17 -6 -42 -57 -42 -83 0 -31 53 -80 85 -80 37 0 85 50
85 88 0 57 -70 98 -128 75z"/>
<path d="M932 4268 c-13 -13 -15 -37 -6 -62 7 -19 55 -21 72 -4 28 28 7 78
-33 78 -12 0 -26 -5 -33 -12z"/>
<path d="M4653 4268 c-48 -23 -46 -104 3 -127 35 -16 47 -14 78 10 34 27 35
71 1 104 -26 27 -47 30 -82 13z"/>
<path d="M704 4256 c-11 -28 1 -51 25 -51 32 0 49 28 32 49 -17 20 -50 21 -57
2z"/>
<path d="M4876 4238 c-9 -12 -16 -30 -16 -40 0 -24 35 -58 60 -58 27 0 60 35
60 63 0 53 -75 77 -104 35z"/>
<path d="M490 4235 c0 -8 5 -15 10 -15 6 0 10 7 10 15 0 8 -4 15 -10 15 -5 0
-10 -7 -10 -15z"/>
<path d="M5128 4238 c-29 -22 -27 -62 3 -78 16 -9 26 -8 45 5 28 18 31 46 8
69 -19 19 -35 20 -56 4z"/>
<path d="M5371 4217 c-16 -16 -14 -34 5 -41 21 -8 34 1 34 24 0 22 -23 33 -39
17z"/>
<path d="M1607 4079 c-32 -19 -50 -75 -37 -115 30 -89 168 -82 186 10 7 38
-15 89 -45 106 -25 13 -81 12 -104 -1z"/>
<path d="M1374 4056 c-48 -41 -35 -115 25 -137 30 -12 87 6 101 31 46 86 -54
169 -126 106z"/>
<path d="M4158 4060 c-39 -30 -52 -71 -38 -114 25 -78 111 -101 172 -47 28 25
33 36 33 76 0 40 -5 51 -33 76 -39 35 -96 39 -134 9z"/>
<path d="M1149 4052 c-28 -23 -30 -73 -4 -102 27 -30 78 -27 104 6 27 35 26
59 -4 89 -29 30 -64 32 -96 7z"/>
<path d="M4414 4060 c-59 -24 -72 -104 -25 -151 74 -73 191 6 151 102 -20 48
-76 69 -126 49z"/>
<path d="M927 4042 c-41 -45 0 -114 55 -93 42 16 50 59 18 91 -25 25 -52 26
-73 2z"/>
<path d="M706 4037 c-38 -27 2 -95 42 -71 24 16 28 55 6 71 -10 7 -21 13 -24
13 -3 0 -14 -6 -24 -13z"/>
<path d="M4642 4043 c-21 -8 -44 -62 -36 -86 23 -76 115 -92 149 -26 20 38 19
62 -6 93 -16 20 -29 26 -57 25 -20 0 -43 -3 -50 -6z"/>
<path d="M4872 4017 c-30 -32 -28 -71 4 -96 15 -12 35 -21 46 -21 25 0 68 44
68 70 0 28 -43 70 -73 70 -13 0 -33 -10 -45 -23z"/>
<path d="M473 4014 c-3 -8 1 -22 9 -30 19 -19 52 3 42 29 -8 21 -43 22 -51 1z"/>
<path d="M5112 4008 c-18 -18 -14 -63 8 -83 45 -41 110 18 76 70 -18 27 -63
34 -84 13z"/>
<path d="M5356 3994 c-22 -21 -20 -40 6 -58 27 -19 58 -5 58 27 0 43 -35 60
-64 31z"/>
<path d="M1603 3850 c-41 -25 -58 -79 -39 -125 39 -92 164 -86 196 10 9 28 8
41 -6 70 -29 62 -93 81 -151 45z"/>
<path d="M1395 3851 c-82 -34 -74 -154 12 -176 51 -12 113 37 113 90 0 29 -28
71 -55 83 -30 14 -42 14 -70 3z"/>
<path d="M1162 3834 c-49 -20 -59 -79 -19 -121 60 -65 160 17 117 97 -15 28
-61 40 -98 24z"/>
<path d="M4379 3811 c-23 -23 -29 -38 -29 -71 0 -33 6 -48 29 -71 65 -65 171
-20 171 72 0 61 -37 99 -98 99 -35 0 -49 -6 -73 -29z"/>
<path d="M917 3812 c-21 -23 -22 -66 -1 -86 8 -9 31 -16 49 -16 37 0 55 20 55
63 0 50 -70 76 -103 39z"/>
<path d="M4643 3820 c-29 -12 -56 -66 -48 -97 26 -106 175 -92 175 17 0 71
-58 108 -127 80z"/>
<path d="M696 3804 c-30 -30 -9 -84 33 -84 21 0 51 30 51 52 0 19 -32 48 -53
48 -8 0 -23 -7 -31 -16z"/>
<path d="M474 3795 c-15 -11 -17 -17 -8 -32 21 -34 63 -25 64 14 0 22 -35 34
-56 18z"/>
<path d="M4860 3783 c-26 -33 -21 -79 11 -105 47 -39 119 -4 119 58 0 71 -86
103 -130 47z"/>
<path d="M5112 3784 c-22 -15 -30 -57 -14 -80 15 -23 50 -34 75 -25 41 16 50
68 17 101 -24 24 -48 25 -78 4z"/>
<path d="M255 3779 c-10 -15 3 -25 16 -12 7 7 7 13 1 17 -6 3 -14 1 -17 -5z"/>
<path d="M5352 3768 c-7 -7 -12 -21 -12 -33 0 -44 60 -63 80 -26 14 27 13 37
-6 55 -18 19 -45 21 -62 4z"/>
<path d="M5593 3744 c-3 -8 1 -22 9 -30 13 -13 16 -13 27 0 7 9 11 23 7 31 -7
20 -35 19 -43 -1z"/>
<path d="M1359 3601 c-51 -51 -37 -130 28 -157 42 -18 94 -5 118 29 43 62 -5
157 -80 157 -27 0 -44 -8 -66 -29z"/>
<path d="M1155 3608 c-52 -28 -62 -92 -20 -133 31 -32 75 -32 111 -1 73 62 -7
181 -91 134z"/>
<path d="M910 3580 c-41 -41 -10 -110 49 -110 60 0 90 82 44 118 -25 18 -70
15 -93 -8z"/>
<path d="M4615 3575 c-37 -36 -35 -97 4 -136 62 -61 161 -14 161 77 0 15 -12
38 -29 55 -39 39 -100 41 -136 4z"/>
<path d="M684 3565 c-20 -31 -10 -63 23 -76 53 -20 97 45 57 85 -23 24 -61 20
-80 -9z"/>
<path d="M4880 3577 c-32 -16 -52 -59 -44 -91 22 -91 158 -75 158 19 0 60 -62
99 -114 72z"/>
<path d="M472 3568 c-19 -19 -14 -56 8 -63 24 -8 50 10 50 34 0 19 -19 41 -35
41 -6 0 -16 -5 -23 -12z"/>
<path d="M253 3563 c-22 -8 -15 -43 7 -43 13 0 20 7 20 19 0 22 -9 30 -27 24z"/>
<path d="M5102 3550 c-43 -41 -17 -110 42 -110 41 0 66 26 66 68 0 56 -66 81
-108 42z"/>
<path d="M5342 3538 c-28 -28 -2 -88 38 -88 40 0 66 60 38 88 -7 7 -24 12 -38
12 -14 0 -31 -5 -38 -12z"/>
<path d="M5597 3529 c-21 -12 -22 -42 -3 -58 20 -16 56 3 56 29 0 25 -30 41
-53 29z"/>
<path d="M1357 3376 c-101 -94 31 -240 134 -148 69 61 24 172 -70 172 -26 0
-46 -7 -64 -24z"/>
<path d="M1129 3361 c-16 -16 -29 -39 -29 -51 0 -35 27 -76 60 -90 57 -24 120
24 120 91 0 32 -53 79 -90 79 -22 0 -41 -9 -61 -29z"/>
<path d="M929 3367 c-37 -19 -50 -54 -35 -91 24 -58 102 -58 128 -1 26 57 -37
119 -93 92z"/>
<path d="M4644 3370 c-65 -26 -83 -109 -35 -162 25 -28 35 -32 72 -31 56 2 99
45 99 98 0 64 -78 119 -136 95z"/>
<path d="M686 3344 c-34 -33 -7 -94 42 -94 45 0 69 61 36 94 -8 9 -26 16 -39
16 -13 0 -31 -7 -39 -16z"/>
<path d="M4875 3348 c-32 -17 -45 -39 -45 -75 0 -76 94 -112 145 -57 34 37 33
78 -4 115 -31 30 -62 36 -96 17z"/>
<path d="M466 3334 c-31 -30 -8 -69 36 -62 26 3 37 41 18 64 -16 18 -35 18
-54 -2z"/>
<path d="M5107 3329 c-29 -17 -39 -56 -22 -88 25 -48 72 -55 111 -15 58 57
-18 144 -89 103z"/>
<path d="M234 3319 c-3 -6 1 -18 9 -27 13 -12 19 -13 31 -3 8 7 12 19 9 27 -6
17 -39 19 -49 3z"/>
<path d="M5335 3296 c-19 -28 -9 -58 26 -76 45 -25 94 51 57 88 -21 21 -66 14
-83 -12z"/>
<path d="M5585 3294 c-19 -20 -16 -43 8 -58 37 -23 77 35 41 61 -23 17 -29 16
-49 -3z"/>
<path d="M5836 3271 c-4 -5 -2 -12 3 -15 5 -4 12 -2 15 3 4 5 2 12 -3 15 -5 4
-12 2 -15 -3z"/>
<path d="M1131 3134 c-62 -52 -25 -154 56 -154 46 0 93 45 93 90 0 22 -9 41
-29 61 -37 37 -79 38 -120 3z"/>
<path d="M4636 3135 c-42 -22 -55 -44 -56 -93 0 -82 75 -126 150 -87 16 8 34
24 40 34 45 86 -51 191 -134 146z"/>
<path d="M906 3124 c-45 -44 -19 -116 44 -122 65 -7 106 72 60 118 -24 24 -82
27 -104 4z"/>
<path d="M676 3108 c-22 -31 -20 -45 8 -73 37 -37 96 -16 96 35 0 55 -73 82
-104 38z"/>
<path d="M4862 3114 c-53 -37 -48 -120 10 -150 89 -46 170 65 99 137 -33 33
-74 38 -109 13z"/>
<path d="M466 3107 c-22 -16 -18 -55 7 -71 39 -24 79 44 41 71 -10 7 -21 13
-24 13 -3 0 -14 -6 -24 -13z"/>
<path d="M5091 3084 c-12 -15 -21 -34 -21 -44 0 -34 39 -70 75 -70 24 0 39 7
54 26 27 35 26 59 -4 89 -33 34 -77 33 -104 -1z"/>
<path d="M233 3084 c-3 -8 -1 -20 5 -26 16 -16 42 -2 42 22 0 24 -38 28 -47 4z"/>
<path d="M5336 3074 c-33 -33 -7 -94 41 -94 42 0 71 68 41 98 -17 17 -64 15
-82 -4z"/>
<path d="M5586 3067 c-29 -21 -17 -61 18 -65 43 -5 61 32 30 62 -19 19 -25 20
-48 3z"/>
<path d="M5826 3042 c-8 -13 11 -35 23 -28 16 10 14 36 -3 36 -8 0 -17 -4 -20
-8z"/>
<path d="M1131 2904 c-25 -21 -31 -33 -31 -65 0 -105 138 -124 174 -25 11 31
-13 85 -44 101 -41 21 -64 19 -99 -11z"/>
<path d="M900 2890 c-25 -25 -26 -71 -2 -99 29 -37 101 -29 120 14 17 36 15
48 -9 79 -26 33 -79 36 -109 6z"/>
<path d="M4606 2884 c-37 -38 -37 -106 1 -146 57 -60 173 -19 173 62 0 38 -24
86 -49 100 -38 20 -96 12 -125 -16z"/>
<path d="M680 2880 c-11 -11 -20 -29 -20 -40 0 -25 34 -60 58 -60 32 0 62 29
62 60 0 53 -62 78 -100 40z"/>
<path d="M4867 2884 c-28 -15 -47 -49 -47 -85 0 -32 53 -79 90 -79 37 0 90 47
90 80 0 33 -26 75 -55 88 -33 15 -44 15 -78 -4z"/>
<path d="M466 2878 c-19 -11 -21 -49 -4 -66 30 -30 75 0 64 42 -7 27 -35 38
-60 24z"/>
<path d="M5096 2859 c-46 -36 -26 -110 34 -124 39 -9 80 27 80 71 0 66 -61 95
-114 53z"/>
<path d="M234 2856 c-8 -21 3 -36 27 -36 15 0 20 6 17 22 -4 27 -35 37 -44 14z"/>
<path d="M15 2851 c-3 -5 -1 -12 5 -16 5 -3 10 1 10 9 0 18 -6 21 -15 7z"/>
<path d="M5336 2844 c-34 -34 -9 -94 39 -94 50 0 73 60 37 93 -23 21 -56 22
-76 1z"/>
<path d="M5577 2833 c-12 -12 -7 -50 8 -63 19 -15 52 -4 60 21 4 11 1 26 -5
34 -13 15 -51 20 -63 8z"/>
<path d="M5820 2800 c0 -13 7 -20 20 -20 13 0 20 7 20 20 0 13 -7 20 -20 20
-13 0 -20 -7 -20 -20z"/>
<path d="M1381 2697 c-48 -17 -74 -69 -60 -119 32 -119 199 -94 199 29 0 38
-25 72 -66 89 -18 8 -35 14 -36 13 -2 0 -18 -5 -37 -12z"/>
<path d="M1124 2666 c-60 -51 -18 -151 62 -149 51 1 84 35 84 85 0 79 -86 117
-146 64z"/>
<path d="M906 2659 c-46 -36 -26 -110 34 -124 64 -15 108 78 58 125 -28 26
-58 26 -92 -1z"/>
<path d="M4630 2667 c-14 -7 -33 -29 -43 -50 -57 -116 119 -202 178 -87 23 44
13 92 -26 124 -33 28 -70 33 -109 13z"/>
<path d="M686 2649 c-14 -11 -26 -29 -26 -40 0 -25 35 -59 60 -59 24 0 60 34
60 55 0 17 -43 65 -58 65 -5 0 -21 -9 -36 -21z"/>
<path d="M4852 2640 c-41 -38 -40 -92 1 -130 51 -48 137 -7 137 65 0 72 -86
113 -138 65z"/>
<path d="M452 2633 c-6 -11 -6 -27 -1 -41 7 -18 15 -23 35 -20 35 4 53 31 38
56 -16 24 -60 28 -72 5z"/>
<path d="M5123 2642 c-29 -4 -53 -38 -53 -73 0 -30 40 -69 70 -69 30 0 70 39
70 69 0 51 -36 81 -87 73z"/>
<path d="M237 2633 c-12 -12 -7 -41 7 -46 19 -7 40 18 32 38 -6 15 -28 20 -39
8z"/>
<path d="M5342 2614 c-24 -16 -28 -44 -12 -75 21 -39 100 -12 100 34 0 20 -34
57 -53 57 -7 0 -23 -7 -35 -16z"/>
<path d="M10 2610 c0 -5 5 -10 10 -10 6 0 10 5 10 10 0 6 -4 10 -10 10 -5 0
-10 -4 -10 -10z"/>
<path d="M5582 2598 c-23 -23 -7 -68 24 -68 14 0 44 27 44 40 0 13 -30 40 -44
40 -6 0 -17 -5 -24 -12z"/>
<path d="M5827 2584 c-14 -15 -6 -34 14 -34 14 0 19 5 17 17 -3 18 -20 27 -31
17z"/>
<path d="M1374 2460 c-33 -13 -54 -50 -54 -93 0 -30 7 -46 30 -69 28 -27 36
-30 73 -25 55 8 87 43 87 98 0 73 -67 117 -136 89z"/>
<path d="M1145 2448 c-49 -29 -60 -87 -24 -132 21 -26 65 -35 104 -20 19 8 45
55 45 83 0 50 -81 95 -125 69z"/>
<path d="M900 2420 c-42 -42 -11 -113 50 -113 61 0 92 71 50 113 -11 11 -33
20 -50 20 -17 0 -39 -9 -50 -20z"/>
<path d="M4613 2422 c-72 -55 -31 -172 60 -172 53 0 97 43 97 95 0 76 -97 124
-157 77z"/>
<path d="M674 2405 c-21 -33 -6 -72 31 -81 52 -13 86 53 47 89 -27 24 -59 21
-78 -8z"/>
<path d="M4875 2421 c-29 -12 -44 -33 -51 -69 -5 -26 -1 -36 24 -62 46 -46
101 -39 131 18 33 63 -38 140 -104 113z"/>
<path d="M466 2407 c-11 -8 -17 -23 -14 -38 2 -19 9 -24 33 -24 24 0 31 5 33
23 3 22 -13 52 -27 52 -4 0 -15 -6 -25 -13z"/>
<path d="M5096 2389 c-33 -26 -34 -62 -1 -94 28 -29 55 -32 83 -7 35 29 38 67
8 96 -31 31 -55 33 -90 5z"/>
<path d="M230 2381 c0 -24 25 -34 40 -16 15 18 5 35 -21 35 -12 0 -19 -7 -19
-19z"/>
<path d="M10 2380 c0 -5 5 -10 10 -10 6 0 10 5 10 10 0 6 -4 10 -10 10 -5 0
-10 -4 -10 -10z"/>
<path d="M5336 2374 c-32 -31 -11 -84 32 -84 35 0 52 16 52 50 0 14 -5 31 -12
38 -17 17 -54 15 -72 -4z"/>
<path d="M5585 2366 c-20 -15 -17 -44 7 -59 12 -8 21 -7 32 2 36 30 -1 85 -39
57z"/>
<path d="M5827 2353 c-4 -3 -7 -12 -7 -20 0 -15 26 -18 34 -4 7 11 -18 33 -27
24z"/>
<path d="M1349 2201 c-49 -49 -30 -129 34 -150 66 -22 134 33 123 99 -12 78
-101 106 -157 51z"/>
<path d="M1143 2210 c-73 -30 -44 -150 37 -150 19 0 40 9 55 25 65 64 -5 160
-92 125z"/>
<path d="M917 2199 c-39 -23 -41 -86 -3 -111 38 -26 96 7 96 53 0 49 -53 82
-93 58z"/>
<path d="M4605 2174 c-35 -38 -34 -87 4 -125 37 -37 79 -38 120 -3 41 34 44
92 6 129 -35 36 -97 35 -130 -1z"/>
<path d="M682 2178 c-20 -20 -14 -66 9 -79 27 -14 65 1 74 31 13 42 -51 80
-83 48z"/>
<path d="M4856 2169 c-55 -43 -22 -133 49 -133 70 0 101 79 50 129 -30 30 -64
32 -99 4z"/>
<path d="M462 2171 c-8 -4 -12 -19 -10 -32 4 -29 45 -34 61 -7 19 30 -19 60
-51 39z"/>
<path d="M237 2164 c-14 -15 -6 -34 14 -34 14 0 19 5 17 17 -3 18 -20 27 -31
17z"/>
<path d="M5096 2155 c-42 -43 -20 -105 38 -105 57 0 83 51 50 98 -18 26 -65
30 -88 7z"/>
<path d="M5330 2135 c-19 -23 -4 -64 26 -71 19 -5 31 -1 47 14 18 18 19 25 9
47 -13 29 -61 35 -82 10z"/>
<path d="M5579 2124 c-9 -11 -10 -20 -3 -32 15 -23 29 -25 48 -7 12 12 13 21
6 36 -13 23 -33 25 -51 3z"/>
<path d="M5826 2112 c-3 -6 -1 -14 5 -17 15 -10 25 3 12 16 -7 7 -13 7 -17 1z"/>
<path d="M1581 1974 c-25 -21 -31 -33 -31 -66 0 -53 14 -77 57 -94 27 -12 42
-13 69 -4 44 15 64 45 64 96 0 35 -5 47 -31 68 -19 17 -43 26 -64 26 -21 0
-45 -9 -64 -26z"/>
<path d="M1355 1965 c-52 -51 -16 -145 55 -145 39 0 90 47 90 83 0 14 -12 39
-26 56 -33 40 -83 43 -119 6z"/>
<path d="M1130 1960 c-26 -26 -26 -81 -2 -103 25 -23 85 -22 105 1 59 65 -42
163 -103 102z"/>
<path d="M4394 1971 c-58 -25 -71 -102 -26 -152 32 -36 84 -43 126 -16 47 31
51 112 7 151 -23 21 -78 29 -107 17z"/>
<path d="M912 1954 c-42 -29 -18 -104 35 -104 47 0 71 71 35 103 -23 21 -41
21 -70 1z"/>
<path d="M692 1944 c-38 -26 -22 -74 24 -74 45 0 58 50 19 76 -18 12 -24 11
-43 -2z"/>
<path d="M4610 1940 c-22 -22 -27 -78 -10 -110 13 -24 65 -41 93 -31 91 35 72
161 -25 161 -25 0 -45 -7 -58 -20z"/>
<path d="M4855 1925 c-30 -30 -31 -54 -4 -89 40 -50 119 -21 119 44 0 35 -34
70 -67 70 -13 0 -35 -11 -48 -25z"/>
<path d="M454 1925 c-4 -9 0 -23 8 -31 20 -20 50 -7 46 20 -4 26 -45 35 -54
11z"/>
<path d="M240 1915 c0 -8 5 -15 10 -15 6 0 10 7 10 15 0 8 -4 15 -10 15 -5 0
-10 -7 -10 -15z"/>
<path d="M5090 1911 c-15 -29 -12 -56 8 -74 50 -46 114 13 82 74 -7 13 -21 19
-45 19 -24 0 -38 -6 -45 -19z"/>
<path d="M5339 1899 c-18 -18 -19 -23 -6 -42 18 -28 40 -32 61 -12 20 21 20
39 0 59 -20 21 -30 20 -55 -5z"/>
<path d="M5576 1883 c-4 -9 0 -23 9 -32 13 -14 17 -14 31 1 9 9 14 24 11 32
-8 21 -43 20 -51 -1z"/>
<path d="M5825 1870 c3 -5 8 -10 11 -10 2 0 4 5 4 10 0 6 -5 10 -11 10 -5 0
-7 -4 -4 -10z"/>
<path d="M1817 1750 c-74 -58 -34 -180 59 -180 23 0 44 9 66 29 27 24 33 36
33 71 0 81 -95 129 -158 80z"/>
<path d="M1587 1740 c-67 -53 -25 -160 63 -160 10 0 32 12 49 26 88 73 -22
204 -112 134z"/>
<path d="M1372 1743 c-21 -8 -44 -62 -36 -86 12 -39 35 -57 74 -57 77 0 103
89 41 137 -16 13 -56 16 -79 6z"/>
<path d="M4138 1721 c-27 -24 -33 -36 -33 -71 0 -100 135 -136 181 -49 23 45
18 87 -15 120 -40 40 -89 40 -133 0z"/>
<path d="M1131 1714 c-12 -15 -21 -32 -21 -39 0 -23 41 -65 64 -65 59 0 88 68
46 110 -28 28 -64 25 -89 -6z"/>
<path d="M4382 1715 c-50 -42 -43 -113 15 -143 33 -18 59 -14 92 14 59 49 33
134 -45 150 -24 4 -37 0 -62 -21z"/>
<path d="M922 1723 c-39 -15 -31 -86 10 -97 27 -6 70 36 62 61 -12 34 -41 49
-72 36z"/>
<path d="M686 1704 c-19 -18 -19 -20 -6 -45 12 -21 40 -25 58 -7 18 18 14 46
-7 58 -25 13 -27 13 -45 -6z"/>
<path d="M4610 1693 c-26 -33 -21 -79 11 -105 47 -39 119 -4 119 58 0 71 -86
103 -130 47z"/>
<path d="M4860 1690 c-54 -54 12 -137 76 -95 32 21 33 77 2 99 -30 21 -54 20
-78 -4z"/>
<path d="M460 1680 c0 -13 7 -20 20 -20 13 0 20 7 20 20 0 13 -7 20 -20 20
-13 0 -20 -7 -20 -20z"/>
<path d="M240 1679 c0 -5 5 -7 10 -4 6 3 10 8 10 11 0 2 -4 4 -10 4 -5 0 -10
-5 -10 -11z"/>
<path d="M5096 1674 c-21 -21 -20 -40 4 -64 24 -24 29 -24 58 -4 24 17 29 53
10 72 -17 17 -54 15 -72 -4z"/>
<path d="M5341 1666 c-19 -23 -4 -56 25 -56 28 0 42 25 27 49 -14 22 -37 25
-52 7z"/>
<path d="M5580 1640 c0 -15 5 -20 18 -18 9 2 17 10 17 18 0 8 -8 16 -17 18
-13 2 -18 -3 -18 -18z"/>
<path d="M2292 1525 c-38 -17 -67 -74 -57 -113 3 -13 19 -37 35 -53 22 -23 38
-29 70 -29 114 0 141 160 33 201 -32 12 -41 11 -81 -6z"/>
<path d="M1855 1522 c-66 -13 -91 -110 -39 -151 61 -48 144 -10 144 67 0 56
-49 95 -105 84z"/>
<path d="M2039 1501 c-21 -22 -29 -39 -29 -66 0 -83 105 -127 164 -69 60 60
17 164 -68 164 -28 0 -45 -7 -67 -29z"/>
<path d="M3693 1516 c-35 -16 -63 -61 -63 -102 0 -38 59 -94 99 -94 75 0 123
58 105 127 -15 62 -83 94 -141 69z"/>
<path d="M1589 1491 c-33 -33 -35 -50 -14 -90 24 -48 81 -56 120 -16 40 40 30
96 -22 123 -34 18 -52 14 -84 -17z"/>
<path d="M3904 1486 c-40 -40 -44 -80 -13 -120 30 -38 64 -49 105 -36 42 14
64 44 64 88 0 44 -14 68 -50 87 -44 23 -69 18 -106 -19z"/>
<path d="M1365 1485 c-32 -31 -32 -59 1 -91 19 -20 31 -24 52 -19 40 10 52 24
52 61 0 39 -29 74 -60 74 -12 0 -32 -11 -45 -25z"/>
<path d="M1140 1480 c-38 -38 -15 -90 40 -90 50 0 69 66 28 94 -30 21 -44 20
-68 -4z"/>
<path d="M4152 1493 c-22 -9 -44 -63 -37 -94 8 -36 49 -69 86 -69 15 0 40 11
56 24 37 32 39 99 4 127 -22 18 -79 24 -109 12z"/>
<path d="M916 1474 c-20 -20 -20 -38 0 -59 21 -20 43 -16 61 12 13 19 12 24
-6 42 -25 25 -35 26 -55 5z"/>
<path d="M4380 1470 c-45 -45 -9 -130 54 -130 36 0 76 41 76 78 0 61 -86 96
-130 52z"/>
<path d="M690 1465 c-17 -20 -5 -45 20 -45 11 0 23 7 26 15 6 15 -11 45 -26
45 -4 0 -13 -7 -20 -15z"/>
<path d="M4620 1460 c-40 -40 -11 -110 45 -110 32 0 65 33 65 65 0 32 -33 65
-65 65 -14 0 -34 -9 -45 -20z"/>
<path d="M4865 1446 c-26 -26 -25 -51 3 -73 34 -28 82 -3 82 42 0 22 -32 55
-53 55 -4 0 -19 -11 -32 -24z"/>
<path d="M462 1448 c6 -18 28 -21 28 -4 0 9 -7 16 -16 16 -9 0 -14 -5 -12 -12z"/>
<path d="M5100 1435 c-26 -32 13 -81 48 -59 34 22 22 74 -18 74 -10 0 -23 -7
-30 -15z"/>
<path d="M5344 1426 c-9 -24 4 -48 23 -44 12 2 18 12 18 28 0 29 -32 41 -41
16z"/>
<path d="M5585 1411 c-6 -11 9 -23 19 -14 9 9 7 23 -3 23 -6 0 -12 -4 -16 -9z"/>
<path d="M2083 1283 c-30 -6 -63 -49 -63 -83 0 -40 42 -80 82 -80 74 1 114 81
66 134 -25 27 -51 35 -85 29z"/>
<path d="M2275 1265 c-35 -34 -34 -93 1 -129 53 -52 138 -21 151 56 5 32 1 41
-25 68 -39 39 -91 41 -127 5z"/>
<path d="M2513 1275 c-28 -20 -46 -75 -34 -106 34 -89 167 -82 184 9 7 34 -15
87 -41 101 -29 16 -84 14 -109 -4z"/>
<path d="M2743 1275 c-12 -8 -27 -31 -33 -50 -31 -95 89 -167 161 -96 38 39
39 87 3 130 -21 26 -33 31 -68 31 -23 0 -51 -7 -63 -15z"/>
<path d="M2966 1265 c-20 -19 -26 -33 -26 -68 0 -61 35 -97 95 -97 59 0 95 36
95 95 0 32 -6 48 -26 69 -36 36 -100 36 -138 1z"/>
<path d="M3199 1261 c-38 -39 -39 -87 -3 -130 21 -26 33 -31 68 -31 52 0 81
20 96 65 31 95 -89 167 -161 96z"/>
<path d="M3464 1280 c-57 -23 -73 -112 -29 -155 34 -35 96 -35 130 0 25 24 29
38 25 85 -4 52 -75 92 -126 70z"/>
<path d="M1822 1260 c-47 -44 -16 -130 47 -130 45 0 75 30 75 75 0 66 -74 99
-122 55z"/>
<path d="M3692 1270 c-12 -5 -30 -26 -39 -45 -17 -35 -17 -38 2 -73 46 -85
165 -58 165 37 0 32 -6 44 -31 65 -32 27 -58 31 -97 16z"/>
<path d="M1591 1244 c-12 -15 -21 -32 -21 -39 0 -23 41 -65 64 -65 37 0 66 28
66 64 0 64 -70 90 -109 40z"/>
<path d="M3908 1240 c-25 -26 -29 -36 -24 -63 8 -43 39 -67 86 -67 30 0 43 6
59 26 25 31 26 55 6 93 -26 51 -82 56 -127 11z"/>
<path d="M1365 1240 c-41 -45 18 -110 70 -76 26 17 32 45 15 77 -14 25 -62 25
-85 -1z"/>
<path d="M4157 1249 c-45 -26 -39 -106 9 -128 35 -16 47 -14 78 10 71 56 -8
164 -87 118z"/>
<path d="M1142 1238 c-19 -19 -14 -45 10 -62 19 -13 25 -14 43 -2 25 16 31 42
15 61 -15 18 -52 19 -68 3z"/>
<path d="M4392 1234 c-15 -10 -22 -25 -22 -49 0 -62 71 -87 109 -39 27 34 26
50 -4 79 -28 29 -51 31 -83 9z"/>
<path d="M914 1226 c-10 -26 4 -48 28 -44 17 2 23 10 23 28 0 18 -6 26 -23 28
-13 2 -25 -3 -28 -12z"/>
<path d="M4632 1224 c-41 -28 -19 -94 32 -94 26 0 56 29 56 53 0 20 -34 57
-53 57 -7 0 -23 -7 -35 -16z"/>
<path d="M692 1213 c2 -10 10 -18 18 -18 8 0 16 8 18 18 2 12 -3 17 -18 17
-15 0 -20 -5 -18 -17z"/>
<path d="M4860 1201 c-16 -31 4 -63 37 -59 34 4 52 32 37 56 -16 26 -60 28
-74 3z"/>
<path d="M5104 1196 c-10 -26 4 -48 28 -44 17 2 23 10 23 28 0 18 -6 26 -23
28 -13 2 -25 -3 -28 -12z"/>
<path d="M5350 1190 c-12 -7 -12 -12 -2 -22 9 -9 15 -9 24 0 16 16 -2 34 -22
22z"/>
<path d="M2535 1038 c-31 -17 -45 -39 -45 -73 0 -68 86 -100 135 -50 33 33 32
70 -4 106 -31 31 -53 35 -86 17z"/>
<path d="M2765 1038 c-41 -23 -56 -68 -39 -113 10 -25 62 -47 95 -40 70 16 83
117 18 150 -33 18 -47 18 -74 3z"/>
<path d="M2054 1014 c-20 -19 -24 -31 -20 -52 8 -33 41 -62 70 -62 44 0 83 70
58 106 -10 15 -47 34 -67 34 -9 0 -27 -11 -41 -26z"/>
<path d="M2282 1017 c-46 -49 -14 -121 53 -121 68 0 100 77 52 122 -31 29 -77
29 -105 -1z"/>
<path d="M2971 1014 c-28 -36 -27 -79 4 -109 34 -35 78 -33 117 5 25 26 29 36
24 63 -8 43 -39 67 -86 67 -30 0 -43 -6 -59 -26z"/>
<path d="M3222 1033 c-21 -8 -44 -62 -36 -86 24 -80 115 -91 153 -19 16 30 5
78 -22 97 -21 15 -69 19 -95 8z"/>
<path d="M3445 1015 c-70 -69 31 -182 102 -115 29 27 37 56 23 89 -21 53 -86
66 -125 26z"/>
<path d="M1608 1018 c-28 -22 -31 -55 -9 -77 26 -26 53 -27 74 -3 23 26 21 58
-5 76 -27 19 -39 20 -60 4z"/>
<path d="M1826 1011 c-25 -28 -17 -72 17 -91 24 -13 30 -13 55 0 53 30 33 110
-28 110 -15 0 -35 -9 -44 -19z"/>
<path d="M3680 1010 c-30 -30 -27 -83 6 -109 36 -29 60 -26 96 9 24 25 29 36
24 58 -14 58 -86 82 -126 42z"/>
<path d="M1376 1004 c-9 -8 -16 -22 -16 -29 0 -17 27 -45 44 -45 15 0 46 32
46 48 0 15 -29 42 -45 42 -7 0 -21 -7 -29 -16z"/>
<path d="M3917 1002 c-10 -10 -17 -32 -17 -49 0 -55 59 -81 108 -47 28 19 30
74 4 97 -25 22 -75 21 -95 -1z"/>
<path d="M4168 1006 c-17 -8 -24 -21 -26 -48 -3 -30 1 -40 23 -54 32 -21 69
-8 87 30 22 49 -34 97 -84 72z"/>
<path d="M1144 995 c-10 -25 4 -45 30 -45 28 0 37 17 24 43 -11 21 -46 23 -54
2z"/>
<path d="M920 981 c0 -15 6 -21 21 -21 14 0 19 5 17 17 -5 26 -38 29 -38 4z"/>
<path d="M4392 988 c-28 -28 -2 -88 38 -88 40 0 66 60 38 88 -15 15 -61 15
-76 0z"/>
<path d="M700 980 c0 -5 5 -10 10 -10 6 0 10 5 10 10 0 6 -4 10 -10 10 -5 0
-10 -4 -10 -10z"/>
<path d="M4632 978 c-30 -30 -1 -75 43 -64 22 6 26 11 23 39 -2 26 -8 33 -28
35 -14 2 -31 -3 -38 -10z"/>
<path d="M4871 966 c-16 -20 -3 -46 24 -46 13 0 26 7 29 16 7 19 -10 44 -29
44 -7 0 -18 -6 -24 -14z"/>
<path d="M5110 951 c0 -15 6 -21 21 -21 25 0 22 33 -4 38 -12 2 -17 -3 -17
-17z"/>
<path d="M2295 775 c-30 -29 -31 -45 -7 -75 20 -25 63 -30 87 -10 23 19 19 76
-7 94 -31 22 -45 20 -73 -9z"/>
<path d="M2522 777 c-27 -29 -28 -61 -2 -87 40 -40 110 -11 110 45 0 31 -33
65 -63 65 -13 0 -33 -10 -45 -23z"/>
<path d="M2751 774 c-25 -32 -26 -52 -5 -82 10 -15 25 -22 47 -22 38 0 50 7
66 37 16 31 14 41 -14 68 -32 33 -68 32 -94 -1z"/>
<path d="M2985 775 c-14 -13 -25 -33 -25 -45 0 -27 43 -70 70 -70 27 0 70 43
70 70 0 27 -43 70 -70 70 -11 0 -32 -11 -45 -25z"/>
<path d="M3240 788 c-30 -11 -40 -25 -40 -60 0 -34 32 -68 63 -68 30 0 67 39
67 72 0 42 -47 72 -90 56z"/>
<path d="M1836 774 c-31 -30 -9 -84 34 -84 11 0 27 11 36 25 15 23 15 27 0 50
-19 29 -47 32 -70 9z"/>
<path d="M2062 778 c-21 -21 -14 -66 13 -84 50 -32 103 22 70 72 -17 26 -62
33 -83 12z"/>
<path d="M3450 768 c-27 -29 -25 -54 5 -83 27 -28 37 -30 68 -14 43 23 50 66
17 99 -26 26 -64 25 -90 -2z"/>
<path d="M3704 777 c-57 -31 -40 -107 25 -107 52 0 80 60 44 92 -27 23 -47 27
-69 15z"/>
<path d="M1600 761 c-7 -15 -5 -24 8 -41 32 -40 85 -4 62 41 -14 25 -56 25
-70 0z"/>
<path d="M3932 764 c-26 -18 -29 -56 -6 -78 39 -40 105 4 85 56 -8 22 -29 38
-50 38 -3 0 -17 -7 -29 -16z"/>
<path d="M1153 754 c-8 -21 13 -42 28 -27 13 13 5 43 -11 43 -6 0 -13 -7 -17
-16z"/>
<path d="M1373 754 c-8 -20 21 -49 41 -41 9 4 16 18 16 32 0 20 -5 25 -25 25
-14 0 -28 -7 -32 -16z"/>
<path d="M4168 759 c-23 -13 -23 -51 0 -72 24 -22 35 -21 55 1 23 25 21 59 -2
72 -24 12 -31 12 -53 -1z"/>
<path d="M930 750 c0 -5 5 -10 11 -10 5 0 7 5 4 10 -3 6 -8 10 -11 10 -2 0 -4
-4 -4 -10z"/>
<path d="M4402 748 c-23 -23 -7 -68 24 -68 14 0 44 27 44 40 0 13 -30 40 -44
40 -6 0 -17 -5 -24 -12z"/>
<path d="M4640 735 c-18 -21 -5 -47 22 -43 26 3 37 36 16 49 -18 12 -24 11
-38 -6z"/>
<path d="M4875 730 c-4 -6 -1 -17 5 -26 10 -11 16 -12 26 -3 11 9 11 15 3 25
-14 17 -25 18 -34 4z"/>
<path d="M5120 709 c0 -5 5 -7 10 -4 6 3 10 8 10 11 0 2 -4 4 -10 4 -5 0 -10
-5 -10 -11z"/>
<path d="M2076 538 c-9 -5 -16 -20 -16 -33 0 -42 60 -57 74 -18 15 38 -22 71
-58 51z"/>
<path d="M2302 538 c-29 -29 -7 -78 35 -78 35 0 52 43 28 70 -20 23 -45 26
-63 8z"/>
<path d="M2532 538 c-20 -20 -14 -66 9 -79 33 -17 69 3 69 39 0 33 -16 52 -45
52 -12 0 -26 -5 -33 -12z"/>
<path d="M2768 539 c-21 -12 -24 -59 -6 -77 18 -18 53 -15 71 6 22 24 21 45
-1 65 -21 19 -39 21 -64 6z"/>
<path d="M2996 534 c-19 -18 -21 -55 -4 -72 15 -15 61 -15 76 0 28 28 2 88
-38 88 -10 0 -26 -7 -34 -16z"/>
<path d="M3229 531 c-20 -16 -22 -23 -14 -47 18 -51 95 -42 95 12 0 25 -24 54
-45 54 -7 0 -23 -9 -36 -19z"/>
<path d="M1622 531 c-19 -11 -11 -45 11 -49 9 -2 20 4 23 13 9 21 -16 47 -34
36z"/>
<path d="M1841 526 c-26 -31 14 -71 45 -45 8 7 14 22 12 33 -4 26 -40 33 -57
12z"/>
<path d="M3462 528 c-28 -28 -7 -78 33 -78 27 0 45 18 45 45 0 27 -18 45 -45
45 -12 0 -26 -5 -33 -12z"/>
<path d="M3695 516 c-21 -31 -5 -66 28 -66 46 0 66 59 28 80 -29 15 -39 13
-56 -14z"/>
<path d="M1392 516 c1 -10 8 -17 13 -17 15 1 12 24 -3 29 -9 3 -13 -2 -10 -12z"/>
<path d="M3930 515 c-10 -12 -10 -21 -1 -41 13 -29 47 -30 65 -1 23 37 -36 76
-64 42z"/>
<path d="M1160 509 c0 -5 5 -7 10 -4 6 3 10 8 10 11 0 2 -4 4 -10 4 -5 0 -10
-5 -10 -11z"/>
<path d="M4164 505 c-10 -25 4 -45 30 -45 27 0 42 26 25 46 -15 19 -48 18 -55
-1z"/>
<path d="M4404 495 c-4 -9 -2 -21 4 -27 15 -15 44 -1 40 19 -4 23 -36 29 -44
8z"/>
<path d="M4647 494 c-8 -8 1 -24 14 -24 5 0 9 7 9 15 0 15 -12 20 -23 9z"/>
<path d="M2081 291 c-19 -12 -6 -41 19 -41 16 0 21 5 18 22 -3 25 -17 32 -37
19z"/>
<path d="M2307 294 c-12 -13 -8 -42 8 -48 25 -9 46 5 43 28 -3 21 -37 34 -51
20z"/>
<path d="M2534 286 c-10 -26 4 -46 31 -46 23 0 26 4 23 28 -3 31 -44 45 -54
18z"/>
<path d="M2765 279 c-10 -30 18 -58 43 -43 9 6 17 22 17 35 0 34 -50 41 -60 8z"/>
<path d="M3000 285 c-18 -22 -1 -50 31 -50 20 0 24 5 24 30 0 23 -5 31 -21 33
-11 2 -27 -4 -34 -13z"/>
<path d="M3242 291 c-20 -12 -11 -55 12 -59 27 -6 48 25 35 49 -10 20 -26 24
-47 10z"/>
<path d="M1620 280 c0 -5 5 -10 10 -10 6 0 10 5 10 10 0 6 -4 10 -10 10 -5 0
-10 -4 -10 -10z"/>
<path d="M1846 281 c-7 -11 18 -33 27 -24 4 3 7 12 7 20 0 15 -26 18 -34 4z"/>
<path d="M3464 275 c-7 -18 12 -45 32 -45 16 0 33 30 27 48 -7 17 -52 15 -59
-3z"/>
<path d="M3704 275 c-8 -21 2 -45 19 -45 8 0 20 7 27 15 10 12 10 18 0 30 -7
8 -19 15 -27 15 -7 0 -16 -7 -19 -15z"/>
<path d="M3934 269 c-8 -14 21 -43 35 -35 6 4 11 16 11 27 0 21 -34 27 -46 8z"/>
<path d="M4175 271 c-8 -15 3 -31 21 -31 9 0 14 7 12 17 -4 20 -24 28 -33 14z"/>
<path d="M4415 250 c3 -5 8 -10 11 -10 2 0 4 5 4 10 0 6 -5 10 -11 10 -5 0 -7
-4 -4 -10z"/>
<path d="M2545 50 c-10 -17 12 -37 25 -24 8 8 6 15 -4 23 -10 9 -16 9 -21 1z"/>
<path d="M2781 46 c-9 -10 -8 -16 3 -25 10 -9 16 -8 25 3 9 10 8 16 -3 25 -10
9 -16 8 -25 -3z"/>
<path d="M2315 41 c-6 -11 9 -23 19 -14 9 9 7 23 -3 23 -6 0 -12 -4 -16 -9z"/>
<path d="M3007 43 c-3 -5 -2 -15 3 -22 10 -17 43 -6 38 12 -6 15 -34 22 -41
10z"/>
<path d="M3242 33 c2 -10 10 -18 18 -18 22 0 18 29 -3 33 -14 3 -18 -1 -15
-15z"/>
<path d="M3485 40 c-4 -6 -3 -16 3 -22 6 -6 12 -6 17 2 4 6 3 16 -3 22 -6 6
-12 6 -17 -2z"/>
<path d="M3710 30 c0 -5 7 -10 16 -10 8 0 12 5 9 10 -3 6 -10 10 -16 10 -5 0
-9 -4 -9 -10z"/>
<path d="M3950 30 c0 -5 5 -10 11 -10 5 0 7 5 4 10 -3 6 -8 10 -11 10 -2 0 -4
-4 -4 -10z"/>
</g>
</svg>
